# xmcd
#
# Track frame offsets:
#	150
#	16764
#	32732
#	50957
#	68243
#	84112
#	98968
#	114642
#	128774
#	143797
#	157181
#	172572
#	189387
#	204162
#	218660
#	236136
#	254464
#	271733
#
# Disc length: 3795 seconds
#
# Revision: 0
# Processed by: cddbd v1.5.2PL0 Copyright (c) Steve Scherf et al.
# Submitted via: EZCDAudioConverter 3.1.0.1
#
DISCID=f20ed112
DTITLE=Nu Country Traxx Volume 219 US
DYEAR=2017
DGENRE=country
TTITLE0=Shania Twain - Life's About To Get Good
TTITLE1=Ronnie Dunn - I Worship The Woman You Walked On
TTITLE2=Luke Combs - When It Rains It Pours
TTITLE3=Little Big Town - When Someone Stops Loving You
TTITLE4=Kelsea Ballerini - Legends
TTITLE5=Brian Milson - I'd Have To Kiss Ya
TTITLE6=Brett Young - Like I Loved You
TTITLE7=Ryan Hurd - Love In A Bar
TTITLE8=Lee Brice - Boy
TTITLE9=The Cadillac Three - Dang If We Didn't
TTITLE10=Blake Torrey - Last Night
TTITLE11=RaeLynn - Lonely Call
TTITLE12=Walker Hayes - You Broke Up With Me
TTITLE13=Michael Ray - Get To You
TTITLE14=Aaron Lewis - Folded Flag
TTITLE15=Jade Jackson - Finish Line
TTITLE16=Andy Ross - Playing In The Mud
TTITLE17=Leaving Thomas - Best Adventure
EXTD=
EXTT0=
EXTT1=
EXTT2=
EXTT3=
EXTT4=
EXTT5=
EXTT6=
EXTT7=
EXTT8=
EXTT9=
EXTT10=
EXTT11=
EXTT12=
EXTT13=
EXTT14=
EXTT15=
EXTT16=
EXTT17=
PLAYORDER=
